<?xml version="1.0" encoding="UTF-8" standalone="no"?>
<!-- Created with Inkscape (http://www.inkscape.org/) -->

<svg
   xmlns:dc="http://purl.org/dc/elements/1.1/"
   xmlns:cc="http://creativecommons.org/ns#"
   xmlns:rdf="http://www.w3.org/1999/02/22-rdf-syntax-ns#"
   xmlns:svg="http://www.w3.org/2000/svg"
   xmlns="http://www.w3.org/2000/svg"
   xmlns:xlink="http://www.w3.org/1999/xlink"
   xmlns:sodipodi="http://sodipodi.sourceforge.net/DTD/sodipodi-0.dtd"
   xmlns:inkscape="http://www.inkscape.org/namespaces/inkscape"
   width="297mm"
   height="210mm"
   viewBox="0 0 237.60296 168.0021"
   version="1.1"
   id="svg8"
   inkscape:version="0.92.5 (2060ec1f9f, 2020-04-08)"
   sodipodi:docname="drawing.svg">
  <defs
     id="defs2">
    <linearGradient
       inkscape:collect="always"
       id="linearGradient48">
      <stop
         style="stop-color:#ff0000;stop-opacity:1;"
         offset="0"
         id="stop44" />
      <stop
         style="stop-color:#ff7f2a;stop-opacity:1"
         offset="1"
         id="stop46" />
    </linearGradient>
    <linearGradient
       inkscape:collect="always"
       xlink:href="#linearGradient48"
       id="linearGradient50"
       x1="26.852825"
       y1="255.97746"
       x2="306.34399"
       y2="72.242096"
       gradientUnits="userSpaceOnUse"
       gradientTransform="matrix(3.869608,0.01649331,-0.01559533,3.8663538,13.205632,-354.31262)" />
    <linearGradient
       inkscape:collect="always"
       xlink:href="#linearGradient48"
       id="linearGradient3849"
       x1="-218.19295"
       y1="583.58905"
       x2="-48.48732"
       y2="300.74637"
       gradientUnits="userSpaceOnUse"
       gradientTransform="matrix(0.33369004,0,0,0.25764636,-0.07030492,55.740907)" />
    <linearGradient
       inkscape:collect="always"
       xlink:href="#linearGradient48"
       id="linearGradient3854"
       x1="1482.9039"
       y1="632.07635"
       x2="909.13727"
       y2="405.80222"
       gradientUnits="userSpaceOnUse" />
  </defs>
  <sodipodi:namedview
     id="base"
     pagecolor="#ffac00"
     bordercolor="#666b66"
     borderopacity="1"
     inkscape:pageopacity="0"
     inkscape:pageshadow="2"
     inkscape:zoom="0.24748737"
     inkscape:cx="407.03853"
     inkscape:cy="-72.105841"
     inkscape:document-units="mm"
     inkscape:current-layer="layer1"
     showgrid="false"
     scale-x="0.80001"
     inkscape:pagecheckerboard="true"
     showborder="true"
     inkscape:showpageshadow="true"
     inkscape:window-width="1366"
     inkscape:window-height="745"
     inkscape:window-x="-8"
     inkscape:window-y="-8"
     inkscape:window-maximized="1" />
  <metadata
     id="metadata5">
    <rdf:RDF>
      <cc:Work
         rdf:about="">
        <dc:format>image/svg+xml</dc:format>
        <dc:type
           rdf:resource="http://purl.org/dc/dcmitype/StillImage" />
        <dc:title />
      </cc:Work>
    </rdf:RDF>
  </metadata>
  <g
     inkscape:label="Layer 1"
     inkscape:groupmode="layer"
     id="layer1"
     transform="translate(0,-87)"
     style="display:inline">
    <path
       style="fill:url(#linearGradient3849);fill-opacity:1;stroke-width:0.25230592"
       d="m 0.1219579,230.91074 a 47.193306,39.751154 0 0 0 0.51422157,-0.0971 47.193306,39.751154 0 0 0 4.47679083,-1.25301 47.193306,39.751154 0 0 0 4.3060354,-1.62338 47.193306,39.751154 0 0 0 4.0916133,-1.97712 47.193306,39.751154 0 0 0 3.837436,-2.31128 47.193306,39.751154 0 0 0 3.544153,-2.62225 47.193306,39.751154 0 0 0 3.215677,-2.90758 47.193306,39.751154 0 0 0 2.854614,-3.16322 47.193306,39.751154 0 0 0 2.465526,-3.38715 47.193306,39.751154 0 0 0 2.052324,-3.57786 47.193306,39.751154 0 0 0 1.617615,-3.73284 47.193306,39.751154 0 0 0 1.166611,-3.8496 47.193306,39.751154 0 0 0 0.705181,-3.92912 47.193306,39.751154 0 0 0 0.235929,-3.96835 47.193306,39.751154 0 0 0 -0.118614,-2.81196 47.193306,39.751154 0 0 0 -0.568317,-3.94421 47.193306,39.751154 0 0 0 -1.033005,-3.87728 47.193306,39.751154 0 0 0 -1.487267,-3.77059 47.193306,39.751154 0 0 0 -1.927191,-3.62717 47.193306,39.751154 0 0 0 -2.347561,-3.44653 47.193306,39.751154 0 0 0 -2.743819,-3.23216 47.193306,39.751154 0 0 0 -3.113354,-2.98507 47.193306,39.751154 0 0 0 -3.451607,-2.70831 47.193306,39.751154 0 0 0 -3.755316,-2.40486 47.193306,39.751154 0 0 0 -4.021877,-2.07677 47.193306,39.751154 0 0 0 -4.2473795,-1.72855 47.193306,39.751154 0 0 0 -4.4318209,-1.3622 47.193306,39.751154 0 0 0 -1.43577959,-0.30898 z"
       id="path3847"
       inkscape:connector-curvature="0"
       inkscape:export-xdpi="96"
       inkscape:export-ydpi="96" />
    <path
       style="fill:url(#linearGradient3854);fill-opacity:1;stroke-width:0.86048597"
       d="m 1134.418,235.29102 c -7.6645,1.52539 -15.6042,3.18261 -23.8653,5.08984 -8.973,2.0716 -18.226,4.37952 -27.6035,6.94141 -9.3774,2.56188 -18.8794,5.37906 -28.3496,8.47265 -9.4702,3.09359 -18.909,6.46217 -28.1601,10.12891 -4.6256,1.83337 -9.2045,3.74214 -13.7168,5.72656 -4.5124,1.98442 -8.9582,4.04489 -13.3184,6.18555 -4.36023,2.14065 -8.63559,4.36199 -12.80469,6.66406 -4.1691,2.30207 -8.23287,4.68564 -12.17188,7.1543 -3.939,2.46866 -7.75193,5.02168 -11.42187,7.66211 -3.66994,2.64043 -7.19668,5.36816 -10.55859,8.18554 -3.36192,2.81738 -6.5593,5.7251 -9.57422,8.72461 -3.01492,2.99951 -5.84761,6.09053 -8.47657,9.27735 -2.62896,3.18681 -5.05377,6.46835 -7.25781,9.84765 -2.20403,3.3793 -4.18759,6.85663 -5.92773,10.4336 -1.74015,3.57696 -3.23732,7.25339 -4.47461,11.0332 -1.23729,3.77981 -2.21469,7.66256 -2.91016,11.65039 -0.69546,3.98783 -1.10993,8.08217 -1.22461,12.2832 -0.11467,4.20104 0.0711,8.50832 0.57617,12.92774 0.50508,4.41941 1.1297,8.68145 1.86524,12.79297 0.73554,4.11151 1.58173,8.07343 2.53515,11.89257 0.95343,3.81915 2.01314,7.49675 3.17188,11.03907 1.15874,3.54231 2.41611,6.94944 3.76758,10.23047 1.35147,3.28102 2.7965,6.43543 4.32812,9.4707 1.53163,3.03527 3.15041,5.95081 4.84961,8.75586 1.69921,2.80505 3.47978,5.49948 5.33399,8.08984 1.8542,2.59037 3.78267,5.07753 5.77929,7.46875 1.99663,2.39122 4.06103,4.68692 6.1875,6.89453 2.12648,2.20762 4.31486,4.3257 6.5586,6.36524 2.24374,2.03954 4.54219,3.99971 6.89062,5.88672 2.34843,1.887 4.74696,3.70116 7.1875,5.45117 4.88109,3.50002 9.93335,6.74185 15.10742,9.78711 5.17407,3.04525 10.46951,5.89459 15.83597,8.60937 5.3664,2.71479 10.8035,5.29608 16.2617,7.80469 5.4582,2.50861 10.9374,4.94436 16.3867,7.37109 5.4493,2.42674 10.8692,4.84335 16.209,7.3125 5.3398,2.46916 10.5988,4.99109 15.7285,7.62696 5.1297,2.63586 10.1303,5.38562 14.9492,8.3125 4.819,2.92687 9.4577,6.03086 13.8653,9.37304 2.2038,1.6711 4.3495,3.401 6.4316,5.19922 2.0821,1.79823 4.0991,3.66458 6.0469,5.60547 1.9478,1.9409 3.826,3.95754 5.6269,6.05664 1.801,2.0991 3.5265,4.27989 5.168,6.55274 1.6415,2.27284 3.3252,4.3772 5.0469,6.32031 1.7216,1.94311 3.481,3.7248 5.2695,5.35742 1.1069,1.01043 2.2447,1.86035 3.3731,2.75781 z"
       id="path3852"
       transform="matrix(0.21166931,0,0,0.21166931,0,87)"
       inkscape:connector-curvature="0"
       inkscape:export-xdpi="96"
       inkscape:export-ydpi="96" />
    <path
       style="fill:url(#linearGradient50);fill-opacity:1;stroke-width:0.86048597"
       d="M 500.71094,8.7988281 22.761719,6.7617188 C 11.975434,6.7157445 3.2563983,15.36214 3.2128906,26.148438 L 1.7773438,382.25 a 141.42857,154.28572 0 0 1 4.3027343,1.19922 141.42857,154.28572 0 0 1 13.2812499,5.28711 141.42857,154.28572 0 0 1 12.728516,6.70898 141.42857,154.28572 0 0 1 12.052734,8.06055 141.42857,154.28572 0 0 1 11.253906,9.33398 141.42857,154.28572 0 0 1 10.34375,10.51172 141.42857,154.28572 0 0 1 9.330078,11.58594 141.42857,154.28572 0 0 1 8.222657,12.54492 141.42857,154.28572 0 0 1 7.035156,13.37696 141.42857,154.28572 0 0 1 5.775391,14.07812 141.42857,154.28572 0 0 1 4.457034,14.63477 141.42857,154.28572 0 0 1 3.0957,15.04882 141.42857,154.28572 0 0 1 1.70313,15.3086 141.42857,154.28572 0 0 1 0.35546,10.91406 141.42857,154.28572 0 0 1 -0.70703,15.40234 141.42857,154.28572 0 0 1 -2.11328,15.25 141.42857,154.28572 0 0 1 -3.496092,14.94141 141.42857,154.28572 0 0 1 -4.847657,14.48828 141.42857,154.28572 0 0 1 -6.15039,13.88672 141.42857,154.28572 0 0 1 -7.388672,13.14648 141.42857,154.28572 0 0 1 -8.554688,12.27735 141.42857,154.28572 0 0 1 -9.636719,11.28515 141.42857,154.28572 0 0 1 -10.621093,10.17774 141.42857,154.28572 0 0 1 -11.5,8.9707 141.42857,154.28572 0 0 1 -12.261719,7.67383 141.42857,154.28572 0 0 1 -12.904297,6.30078 141.42857,154.28572 0 0 1 -13.4160155,4.86328 141.42857,154.28572 0 0 1 -1.54101562,0.37696 L 0.2109375,770.58398 c -0.0435076,10.7863 8.604341,19.50872 19.3906245,19.55469 l 1093.089838,4.65821 c 10.7863,0.046 19.5053,-8.60043 19.5488,-19.38672 l 0.6993,-173.34571 c -1.1284,-0.89746 -2.2662,-1.74738 -3.3731,-2.75781 -1.7885,-1.63262 -3.5479,-3.41431 -5.2695,-5.35742 -1.7217,-1.94311 -3.4054,-4.04747 -5.0469,-6.32031 -1.6415,-2.27285 -3.367,-4.45364 -5.168,-6.55274 -1.8009,-2.0991 -3.6791,-4.11574 -5.6269,-6.05664 -1.9478,-1.94089 -3.9648,-3.80724 -6.0469,-5.60547 -2.0821,-1.79822 -4.2278,-3.52812 -6.4316,-5.19922 -4.4076,-3.34218 -9.0463,-6.44617 -13.8653,-9.37304 -4.8189,-2.92688 -9.8195,-5.67664 -14.9492,-8.3125 -5.1297,-2.63587 -10.3887,-5.1578 -15.7285,-7.62696 -5.3398,-2.46915 -10.7597,-4.88576 -16.209,-7.3125 -5.4493,-2.42673 -10.9285,-4.86248 -16.3867,-7.37109 -5.4582,-2.50861 -10.8953,-5.0899 -16.2617,-7.80469 -5.36649,-2.71478 -10.6619,-5.56412 -15.83597,-8.60937 -5.17407,-3.04526 -10.22633,-6.28709 -15.10742,-9.78711 -2.44054,-1.75001 -4.83907,-3.56417 -7.1875,-5.45117 -2.34843,-1.88701 -4.64688,-3.84718 -6.89062,-5.88672 -2.24374,-2.03954 -4.43212,-4.15762 -6.5586,-6.36524 -2.12647,-2.20761 -4.19087,-4.50331 -6.1875,-6.89453 -1.99662,-2.39122 -3.92509,-4.87838 -5.77929,-7.46875 -1.85421,-2.59036 -3.63478,-5.28479 -5.33399,-8.08984 -1.6992,-2.80505 -3.31798,-5.72059 -4.84961,-8.75586 -1.53162,-3.03527 -2.97665,-6.18968 -4.32812,-9.4707 -1.35147,-3.28103 -2.60884,-6.68816 -3.76758,-10.23047 -1.15874,-3.54232 -2.21844,-7.21992 -3.17188,-11.03907 -0.95342,-3.81914 -1.79961,-7.78106 -2.53515,-11.89257 -0.73554,-4.11152 -1.36016,-8.37356 -1.86524,-12.79297 -0.50507,-4.41942 -0.69084,-8.7267 -0.57617,-12.92774 0.11468,-4.20103 0.52915,-8.29537 1.22461,-12.2832 0.69547,-3.98783 1.67287,-7.87058 2.91016,-11.65039 1.23729,-3.77981 2.73446,-7.45624 4.47461,-11.0332 1.74014,-3.57697 3.7237,-7.0543 5.92773,-10.4336 2.20404,-3.3793 4.62885,-6.66084 7.25781,-9.84765 2.62896,-3.18682 5.46165,-6.27784 8.47657,-9.27735 3.01492,-2.99951 6.2123,-5.90723 9.57422,-8.72461 3.36191,-2.81738 6.88865,-5.54511 10.55859,-8.18554 3.66994,-2.64043 7.48287,-5.19345 11.42187,-7.66211 3.93901,-2.46866 8.00278,-4.85223 12.17188,-7.1543 4.1691,-2.30207 8.44446,-4.52341 12.80469,-6.66406 0.9891,-0.48559 2.0238,-0.92497 3.0215,-1.40235 -3.27351,-3.82429 -6.5661,-7.64086 -10.0801,-11.34961 -4.47063,-4.7184 -9.14627,-9.33687 -14.05468,-13.83593 -4.90842,-4.49907 -10.04873,-8.87951 -15.44922,-13.12305 -5.40049,-4.24354 -11.06094,-8.34894 -17.00782,-12.30078 -5.94687,-3.95185 -12.18095,-7.74908 -18.72851,-11.37305 -6.54757,-3.62397 -13.40877,-7.07602 -20.61133,-10.33594 -7.20256,-3.25991 -14.74634,-6.32781 -22.6582,-9.1875 -7.91186,-2.85968 -16.19172,-5.51032 -24.86719,-7.93359 -8.67547,-2.42327 -17.74686,-4.61963 -27.24023,-6.57031 -9.49338,-1.95069 -19.40981,-3.65574 -29.7754,-5.09766 -10.36558,-1.44192 -20.42467,-3.08099 -30.18945,-4.90429 -9.76478,-1.82331 -19.23418,-3.83064 -28.41601,-6.00782 -9.18184,-2.17718 -18.07661,-4.5238 -26.69336,-7.02734 -8.61675,-2.50354 -16.95586,-5.16441 -25.02539,-7.9668 -8.06954,-2.80238 -15.86998,-5.74659 -23.41016,-8.82031 -7.54018,-3.07372 -14.82092,-6.27621 -21.84961,-9.59375 -7.02869,-3.31754 -13.80478,-6.75131 -20.33984,-10.28516 -6.53506,-3.53385 -12.82743,-7.16797 -18.88672,-10.89062 -6.0593,-3.72265 -11.88689,-7.53404 -17.48828,-11.417971 -5.6014,-3.883932 -10.97732,-7.841671 -16.13868,-11.859375 -5.16135,-4.017704 -10.10651,-8.094786 -14.8457,-12.21875 -4.73918,-4.123963 -9.27255,-8.293384 -13.60742,-12.496093 -4.33487,-4.20271 -8.47149,-8.439416 -12.41992,-12.69336 -3.94843,-4.253944 -7.70922,-8.525069 -11.28906,-12.802734 -3.57985,-4.277665 -6.97986,-8.56011 -10.20899,-12.833985 -3.22912,-4.273874 -6.28732,-8.540632 -9.18359,-12.783203 -0.441,-0.645997 -0.81648,-1.2808769 -1.25,-1.9257809 z"
       id="path3857"
       transform="matrix(0.21166931,0,0,0.21166931,0,87)"
       inkscape:connector-curvature="0"
       inkscape:export-xdpi="96"
       inkscape:export-ydpi="96" />
    <g
       id="g3828"
       transform="matrix(0.99202191,0,0,1,1.5075575,-31.645107)"
       inkscape:export-xdpi="96"
       inkscape:export-ydpi="96">
      <ellipse
         ry="42.938633"
         rx="42.031479"
         cy="308.08243"
         cx="16.588181"
         id="path3758"
         style="fill:#ffffff;stroke-width:0.21399117" />
      <ellipse
         ry="42.938633"
         rx="41.124325"
         cy="304.51459"
         cx="255.04077"
         id="path3758-0"
         style="fill:#ffffff;stroke-width:0.21166931" />
      <ellipse
         ry="42.938633"
         rx="41.124325"
         cy="302.74326"
         cx="63.389648"
         id="path3758-6"
         style="fill:#ffffff;stroke-width:0.21166931" />
      <ellipse
         ry="42.938633"
         rx="44.545418"
         cy="312.71301"
         cx="123.92738"
         id="path3758-4"
         style="fill:#ffffff;stroke-width:0.22029772" />
      <ellipse
         ry="42.938633"
         rx="41.124325"
         cy="305.97467"
         cx="190.59875"
         id="path3758-9"
         style="fill:#ffffff;stroke-width:0.21166931" />
    </g>
    <path
       style="fill:#ffffff;fill-opacity:1;stroke-width:0.86048597"
       d="m 500.71094,8.7988281 c 0.43352,0.644904 0.809,1.2797839 1.25,1.9257809 2.89627,4.242571 5.95447,8.509329 9.18359,12.783203 3.22913,4.273875 6.62914,8.55632 10.20899,12.833985 3.57984,4.277665 7.34063,8.54879 11.28906,12.802734 3.94843,4.253944 8.08505,8.49065 12.41992,12.69336 4.33487,4.202709 8.86824,8.37213 13.60742,12.496093 4.73919,4.123964 9.68435,8.201046 14.8457,12.21875 5.16136,4.017704 10.53728,7.975443 16.13868,11.859375 5.60139,3.883931 11.42898,7.695321 17.48828,11.417971 6.05929,3.72265 12.35166,7.35677 18.88672,10.89062 6.53506,3.53385 13.31115,6.96762 20.33984,10.28516 7.02869,3.31754 14.30943,6.52003 21.84961,9.59375 7.54018,3.07372 15.34062,6.01793 23.41016,8.82031 8.06953,2.80239 16.40864,5.46326 25.02539,7.9668 8.61675,2.50354 17.51152,4.85016 26.69336,7.02734 9.18183,2.17718 18.65123,4.18451 28.41601,6.00782 9.76478,1.8233 19.82387,3.46237 30.18945,4.90429 10.36559,1.44192 20.28202,3.14697 29.7754,5.09766 9.49337,1.95068 18.56476,4.14704 27.24023,6.57031 8.67547,2.42327 16.95533,5.07391 24.86719,7.93359 7.91186,2.85969 15.45564,5.92759 22.6582,9.1875 7.20256,3.25992 14.06376,6.71197 20.61133,10.33594 6.54756,3.62397 12.78164,7.4212 18.72851,11.37305 5.94688,3.95184 11.60733,8.05724 17.00782,12.30078 5.40049,4.24354 10.5408,8.62398 15.44922,13.12305 4.90841,4.49906 9.58405,9.11753 14.05468,13.83593 3.514,3.70875 6.80659,7.52532 10.0801,11.34961 3.4004,-1.62711 6.808,-3.24892 10.2969,-4.7832 4.5123,-1.98442 9.0912,-3.89319 13.7168,-5.72656 9.2511,-3.66674 18.6899,-7.03532 28.1601,-10.12891 9.4702,-3.09359 18.9722,-5.91077 28.3496,-8.47265 9.3775,-2.56189 18.6305,-4.86981 27.6035,-6.94141 8.2611,-1.90723 16.2008,-3.56445 23.8653,-5.08984 l 0.8242,-204.316411 c 0.043,-10.786295 -8.6044,-19.50676 -19.3906,-19.552734 z"
       id="rect34"
       transform="matrix(0.21166931,0,0,0.21166931,0,87)"
       inkscape:connector-curvature="0"
       inkscape:export-xdpi="96"
       inkscape:export-ydpi="96" />
  </g>
</svg>
